<svg width="20" height="21" viewBox="0 0 20 21" fill="none" xmlns="http://www.w3.org/2000/svg">
<path d="M9.9999 15.975C13.2308 15.975 15.8499 13.3559 15.8499 10.125C15.8499 6.89414 13.2308 4.275 9.9999 4.275C6.76904 4.275 4.1499 6.89414 4.1499 10.125C4.1499 13.3559 6.76904 15.975 9.9999 15.975Z" stroke="#FAF7F0" stroke-width="1.5" stroke-linecap="round" stroke-linejoin="round"/>
<path d="M16.426 16.551L16.309 16.434M16.309 3.816L16.426 3.699L16.309 3.816ZM3.574 16.551L3.691 16.434L3.574 16.551ZM10 1.197V1.125V1.197ZM10 19.125V19.053V19.125ZM1.072 10.125H1H1.072ZM19 10.125H18.928H19ZM3.691 3.816L3.574 3.699L3.691 3.816Z" stroke="#FAF7F0" stroke-width="2" stroke-linecap="round" stroke-linejoin="round"/>
</svg>
